<?xml version="1.0" standalone="no"?>
<!DOCTYPE svg PUBLIC "-//W3C//DTD SVG 20010904//EN"
 "http://www.w3.org/TR/2001/REC-SVG-20010904/DTD/svg10.dtd">
<svg version="1.0" xmlns="http://www.w3.org/2000/svg"
 width="915.000000pt" height="273.000000pt" viewBox="0 0 915.000000 273.000000"
 preserveAspectRatio="xMidYMid meet">

<g transform="translate(0.000000,273.000000) scale(0.100000,-0.100000)"
fill="#000000" stroke="none">
<path d="M1009 2556 c-125 -35 -270 -149 -324 -256 -50 -98 -57 -131 -64 -270
l-6 -135 -100 -6 c-56 -3 -116 -13 -137 -22 -52 -22 -126 -93 -153 -147 -40
-79 -40 -117 -1 -315 19 -99 51 -272 72 -385 20 -113 45 -228 56 -257 22 -59
79 -123 138 -153 70 -36 179 -41 721 -38 578 4 566 3 654 80 78 69 90 102 145
403 17 94 44 240 61 326 45 242 37 315 -47 408 -63 70 -117 93 -239 100 l-100
6 -6 135 c-6 143 -19 192 -74 286 -63 107 -170 192 -292 231 -84 26 -225 30
-304 9z m317 -156 c80 -41 146 -110 187 -197 29 -63 31 -74 31 -187 l1 -121
-395 0 -395 0 -3 68 c-7 153 25 258 105 348 86 95 177 131 316 125 75 -3 97
-8 153 -36z m-586 -770 c68 -68 -37 -174 -107 -108 -50 47 -17 128 52 128 22
0 43 -8 55 -20z m930 0 c27 -27 26 -77 -2 -107 -45 -49 -128 -14 -128 54 0 44
30 73 75 73 22 0 43 -8 55 -20z m-271 -146 c140 -41 209 -210 141 -343 -19
-39 -19 -40 0 -83 30 -67 34 -118 16 -179 -20 -70 -67 -126 -130 -155 -49 -23
-61 -24 -263 -24 l-213 0 0 45 c0 43 1 45 29 45 20 0 30 -6 34 -20 5 -20 11
-21 179 -17 153 3 178 6 215 25 105 55 134 180 63 279 -31 45 -31 45 -12 67
79 86 65 217 -30 282 l-41 29 -189 3 c-165 3 -188 1 -188 -12 0 -11 -9 -16
-30 -16 -29 0 -30 2 -30 45 l0 45 198 0 c151 0 211 -4 251 -16z m-24 -130 c71
-33 84 -133 25 -186 l-30 -28 -210 0 -210 0 0 70 0 70 30 0 c29 0 30 -2 30
-45 l0 -45 163 0 c131 0 167 3 185 16 26 18 29 60 5 86 -15 16 -36 18 -250 18
l-233 0 0 -215 0 -215 219 0 c121 0 231 4 244 9 42 16 49 90 10 106 -10 4 -91
10 -180 13 l-163 5 0 -47 c0 -44 -1 -46 -30 -46 l-30 0 0 70 0 70 199 0 c110
0 211 -4 225 -10 33 -12 66 -66 66 -105 0 -39 -33 -93 -66 -105 -14 -6 -142
-10 -290 -10 l-264 0 0 270 0 270 261 0 c217 0 267 -3 294 -16z"/>
<path d="M3170 1370 l0 -550 60 0 60 0 0 273 c0 250 2 275 19 303 55 90 188
128 269 77 13 -8 32 -28 42 -46 19 -30 20 -52 20 -319 l0 -288 65 0 65 0 0
288 c0 320 -6 364 -61 426 -41 47 -97 67 -185 67 -84 0 -139 -20 -197 -71
l-37 -32 0 211 0 211 -60 0 -60 0 0 -550z"/>
<path d="M5640 1370 l0 -550 60 0 60 0 0 40 c0 22 2 40 5 40 3 0 18 -12 33
-26 47 -45 104 -65 188 -65 134 -1 221 62 276 199 19 50 22 76 22 197 0 122
-3 147 -23 198 -51 130 -141 198 -262 199 -84 0 -140 -17 -189 -59 l-40 -34
-2 203 -3 203 -62 3 -63 3 0 -551z m372 120 c94 -26 139 -106 146 -256 9 -194
-49 -299 -175 -320 -61 -9 -122 12 -170 61 l-43 42 0 187 0 187 38 40 c56 60
126 80 204 59z"/>
<path d="M2493 1852 c-113 -40 -183 -112 -203 -207 -19 -93 8 -173 79 -238 54
-48 111 -76 263 -126 191 -63 245 -113 236 -213 -9 -85 -59 -130 -167 -149
-150 -27 -292 46 -310 158 l-6 38 -68 3 c-77 3 -78 2 -52 -84 41 -137 188
-225 377 -225 145 0 220 25 290 98 50 52 68 99 68 180 0 86 -22 134 -84 191
-54 50 -118 81 -266 128 -180 57 -237 109 -228 206 10 99 81 148 213 148 93 0
146 -20 188 -69 24 -29 47 -86 47 -118 0 -9 20 -13 66 -13 l67 0 -5 43 c-11
95 -76 180 -176 229 -60 30 -76 33 -172 36 -82 2 -116 -2 -157 -16z"/>
<path d="M4240 1599 c-75 -9 -121 -30 -178 -83 -88 -82 -129 -202 -119 -351 6
-103 36 -181 94 -245 73 -81 120 -104 229 -108 164 -7 263 47 330 182 31 65
37 87 42 165 16 293 -143 469 -398 440z m128 -114 c50 -21 79 -51 110 -110 34
-65 43 -213 18 -296 -29 -102 -111 -169 -206 -169 -52 0 -115 27 -147 61 -87
95 -97 320 -20 436 55 83 156 115 245 78z"/>
<path d="M5115 1599 c-57 -7 -120 -36 -149 -68 -23 -25 -36 -13 -36 32 0 26
-1 27 -60 27 l-60 0 0 -535 0 -535 65 0 65 0 0 186 0 186 35 -26 c51 -39 111
-57 193 -57 55 0 85 5 118 21 57 28 118 98 146 169 20 50 23 73 23 206 0 133
-3 156 -23 206 -27 68 -88 140 -137 163 -48 23 -119 33 -180 25z m66 -110
c117 -39 174 -176 150 -353 -21 -152 -91 -226 -209 -226 -59 0 -120 28 -155
69 l-27 33 0 189 0 190 38 40 c56 60 131 82 203 58z"/>
<path d="M6717 1599 c-71 -11 -131 -44 -186 -105 -66 -72 -92 -142 -99 -265
-10 -192 52 -318 190 -391 65 -33 221 -38 300 -8 52 19 149 96 148 117 -1 4
-17 20 -37 35 l-36 28 -38 -35 c-51 -46 -100 -65 -166 -65 -122 0 -215 85
-230 209 l-6 51 263 0 263 0 -5 98 c-5 111 -34 191 -91 250 -62 65 -166 96
-270 81z m133 -121 c35 -18 51 -35 73 -77 15 -32 27 -71 27 -93 l0 -38 -192 2
-193 3 3 30 c8 72 65 154 127 181 45 20 105 17 155 -8z"/>
<path d="M7495 1599 c-136 -17 -243 -129 -276 -289 -6 -30 -9 -98 -7 -151 8
-153 67 -255 183 -317 46 -25 60 -27 165 -27 99 0 121 3 161 23 41 20 129 97
129 111 0 4 -18 18 -39 33 l-38 27 -24 -26 c-37 -40 -116 -73 -177 -73 -122 0
-214 84 -229 211 l-6 49 263 0 263 0 -5 93 c-12 199 -99 314 -255 335 -32 4
-81 5 -108 1z m132 -118 c51 -24 91 -88 100 -160 l6 -51 -197 0 c-213 0 -204
-3 -186 60 38 136 161 203 277 151z"/>
</g>
</svg>
